<svg xmlns="http://www.w3.org/2000/svg" width="20" height="20" viewBox="0 0 20 20">
  <g id="chat-2036143" transform="translate(0)">
    <path id="Path_2870" data-name="Path 2870" d="M10,0A10.006,10.006,0,0,0,0,10H0a9.956,9.956,0,0,0,1.129,4.625c.071.133.133.267.2.391a1.317,1.317,0,0,1,.089,1,19.575,19.575,0,0,0-.711,2.33c0,.391.116.623.534.623a19.047,19.047,0,0,0,2.241-.649,1.53,1.53,0,0,1,.96.062c.276.142.525.347.8.471h.089A10,10,0,0,0,20,10h0A10.006,10.006,0,0,0,10,0Z" fill="#fff" opacity="0.4"/>
    <path id="Path_2871" data-name="Path 2871" d="M5.261,11.535a1.252,1.252,0,0,1-1.252-1.252h0a1.252,1.252,0,1,1,1.252,1.252Zm4.522,0A1.244,1.244,0,0,1,8.53,10.283h0a1.252,1.252,0,1,1,1.252,1.252Zm4.513,0a1.252,1.252,0,0,1-1.252-1.252h0A1.252,1.252,0,1,1,14.3,11.535Z" fill="#fff"/>
  </g>
</svg>
