<svg id="document-2036141" xmlns="http://www.w3.org/2000/svg" width="18" height="20" viewBox="0 0 18 20">
  <path id="Path_2875" data-name="Path 2875" d="M13.191,0H4.81C1.77,0,0,1.78,0,4.83V15.16C0,18.26,1.77,20,4.81,20h8.381C16.28,20,18,18.26,18,15.16V4.83C18,1.78,16.28,0,13.191,0" fill="#fff" opacity="0.4"/>
  <path id="Path_2876" data-name="Path 2876" d="M5.08,13.74h7.84a.79.79,0,0,1,0,1.57H5.08a.777.777,0,0,1-.75-.36.8.8,0,0,1,0-.84A.784.784,0,0,1,5.08,13.74Zm7.84-4.561a.781.781,0,0,1,0,1.561H5.08a.781.781,0,0,1,0-1.561ZM8.069,4.65a.785.785,0,0,1,0,1.57H5.08a.78.78,0,0,1,0-1.56V4.65Z" fill="#fff"/>
</svg>
