<svg xmlns="http://www.w3.org/2000/svg" xmlns:xlink="http://www.w3.org/1999/xlink" width="20" height="20" viewBox="0 0 20 20">
  <defs>
    <linearGradient id="linear-gradient" x1="0.5" x2="0.5" y2="1" gradientUnits="objectBoundingBox">
      <stop offset="0" stop-color="#0065f7"/>
      <stop offset="1" stop-color="#20c008"/>
    </linearGradient>
  </defs>
  <g id="Group_16121" data-name="Group 16121" transform="translate(-217 -194)">
    <circle id="Ellipse_155" data-name="Ellipse 155" cx="10" cy="10" r="10" transform="translate(217 194)" fill="#fff"/>
    <path id="edit_1_" data-name="edit (1)" d="M8.311,4.7,4.676,8.333a1.522,1.522,0,0,1-.707.4l-1.395.349a.3.3,0,0,1-.369-.369l.349-1.395a1.522,1.522,0,0,1,.4-.707L6.59,2.975Zm.861-2.582a1.217,1.217,0,0,1,0,1.722l-.431.43L7.02,2.544l.431-.43A1.217,1.217,0,0,1,9.173,2.114Z" transform="translate(221.455 198.893)" fill="url(#linear-gradient)"/>
  </g>
</svg>
