<svg xmlns="http://www.w3.org/2000/svg" width="113.995" height="91.056" viewBox="0 0 113.995 91.056">
  <g id="Group_18545" data-name="Group 18545" transform="translate(-91.567 -250.358)">
    <g id="Group_18543" data-name="Group 18543" transform="translate(91.567 250.358)">
      <g id="Group_18530" data-name="Group 18530" transform="translate(21.986)">
        <path id="Path_14133" data-name="Path 14133" d="M151.2,157.554l21.369,48.635,47.651-6.54Z" transform="translate(-150.523 -156.876)" fill="#ce6a05"/>
        <path id="Path_14134" data-name="Path 14134" d="M170.459,204.755a.678.678,0,0,1-.62-.405l-21.369-48.635a.678.678,0,0,1,.973-.851l69.02,42.094a.678.678,0,0,1-.261,1.25l-47.651,6.54A.663.663,0,0,1,170.459,204.755Zm-19.881-47.611,20.3,46.193,45.258-6.212Z" transform="translate(-148.412 -154.766)" fill="#2f2f2f"/>
      </g>
      <g id="Group_18531" data-name="Group 18531" transform="translate(33.44 42.07)">
        <path id="Path_14135" data-name="Path 14135" d="M198.332,370.722,208.425,337.2l47.651-6.54Z" transform="translate(-197.654 -329.982)" fill="#ce6a05"/>
        <path id="Path_14136" data-name="Path 14136" d="M196.221,369.289a.677.677,0,0,1-.649-.873l10.093-33.522a.677.677,0,0,1,.557-.476l47.651-6.54a.678.678,0,0,1,.479,1.228l-57.744,40.063A.676.676,0,0,1,196.221,369.289ZM206.837,335.7l-9.408,31.247L251.254,329.6Z" transform="translate(-195.543 -327.871)" fill="#2f2f2f"/>
      </g>
      <g id="Group_18532" data-name="Group 18532" transform="translate(65.612 9.935)">
        <path id="Path_14137" data-name="Path 14137" d="M356.344,230.518l6.18-31.939-31.67,16.533Z" transform="translate(-330.142 -197.866)" fill="#ce6a05"/>
        <path id="Path_14138" data-name="Path 14138" d="M354.125,229.011a.711.711,0,0,1-.368-.1L328.266,213.5a.713.713,0,0,1,.039-1.241l31.67-16.533a.712.712,0,0,1,1.029.767l-6.18,31.939a.713.713,0,0,1-.7.577Zm-24.038-16.074,23.532,14.223,5.7-29.486Z" transform="translate(-327.923 -195.647)" fill="#2f2f2f"/>
      </g>
      <g id="Group_18533" data-name="Group 18533" transform="translate(94.788 9.935)">
        <path id="Path_14139" data-name="Path 14139" d="M453.4,198.579l11.188,11.014L450.9,211.471Z" transform="translate(-450.191 -197.866)" fill="#ce6a05"/>
        <path id="Path_14140" data-name="Path 14140" d="M448.684,209.964a.712.712,0,0,1-.7-.848l2.494-12.893a.713.713,0,0,1,1.2-.372l11.188,11.014a.713.713,0,0,1-.4,1.214l-13.682,1.878A.723.723,0,0,1,448.684,209.964Zm2.942-12.165-2.053,10.611,11.261-1.546Z" transform="translate(-447.971 -195.647)" fill="#2f2f2f"/>
      </g>
      <g id="Group_18534" data-name="Group 18534" transform="translate(0 25.018)">
        <path id="Path_14141" data-name="Path 14141" d="M104.27,284.087,60.737,260.494l33.575,1.359Z" transform="translate(-60.059 -259.817)" fill="#ce6a05"/>
        <path id="Path_14142" data-name="Path 14142" d="M102.159,282.654a.677.677,0,0,1-.323-.082L58.3,258.979a.678.678,0,0,1,.35-1.273l33.574,1.359a.678.678,0,0,1,.591.4l9.958,22.234a.678.678,0,0,1-.619.955ZM61.515,259.179l39.207,21.248L91.754,260.4Z" transform="translate(-57.948 -257.706)" fill="#2f2f2f"/>
      </g>
    </g>
    <g id="Group_18544" data-name="Group 18544" transform="translate(95.667 257.927)">
      <g id="Group_18536" data-name="Group 18536" transform="translate(21.986)">
        <path id="Path_14143" data-name="Path 14143" d="M168.07,188.7l21.369,48.635,47.651-6.54Z" transform="translate(-167.393 -188.018)" fill="#ffc804"/>
        <path id="Path_14144" data-name="Path 14144" d="M187.329,235.9a.678.678,0,0,1-.62-.405l-21.369-48.635a.678.678,0,0,1,.973-.851l69.02,42.094a.678.678,0,0,1-.261,1.25l-47.651,6.54A.663.663,0,0,1,187.329,235.9Zm-19.882-47.611,20.3,46.193L233,228.267Z" transform="translate(-165.282 -185.908)" fill="#2f2f2f"/>
      </g>
      <g id="Group_18537" data-name="Group 18537" transform="translate(33.44 42.07)">
        <path id="Path_14145" data-name="Path 14145" d="M215.2,401.864l10.093-33.522,47.65-6.54Z" transform="translate(-214.524 -361.124)" fill="#ffc804"/>
        <path id="Path_14146" data-name="Path 14146" d="M213.091,400.431a.678.678,0,0,1-.649-.873l10.093-33.522a.678.678,0,0,1,.557-.476l47.651-6.54a.678.678,0,0,1,.479,1.228L213.478,400.31A.677.677,0,0,1,213.091,400.431Zm10.616-33.588L214.3,398.09l53.824-37.344Z" transform="translate(-212.413 -359.013)" fill="#2f2f2f"/>
      </g>
      <g id="Group_18538" data-name="Group 18538" transform="translate(65.612 9.935)">
        <path id="Path_14147" data-name="Path 14147" d="M373.214,261.66l6.18-31.939-31.67,16.533Z" transform="translate(-347.012 -229.009)" fill="#ffc804"/>
        <path id="Path_14148" data-name="Path 14148" d="M371,260.153a.711.711,0,0,1-.368-.1l-25.49-15.406a.713.713,0,0,1,.039-1.241l31.67-16.533a.713.713,0,0,1,1.029.767l-6.18,31.939a.713.713,0,0,1-.7.577ZM346.958,244.08,370.49,258.3l5.7-29.486Z" transform="translate(-344.793 -226.789)" fill="#2f2f2f"/>
      </g>
      <g id="Group_18539" data-name="Group 18539" transform="translate(94.788 9.935)">
        <path id="Path_14149" data-name="Path 14149" d="M470.268,229.721l11.188,11.014-13.682,1.878Z" transform="translate(-467.061 -229.009)" fill="#ffc804"/>
        <path id="Path_14150" data-name="Path 14150" d="M465.554,241.107a.713.713,0,0,1-.7-.848l2.494-12.892a.713.713,0,0,1,1.2-.373l11.188,11.014a.712.712,0,0,1-.4,1.214L465.651,241.1A.724.724,0,0,1,465.554,241.107Zm2.942-12.165-2.053,10.611,11.261-1.546Z" transform="translate(-464.842 -226.789)" fill="#2f2f2f"/>
      </g>
      <g id="Group_18540" data-name="Group 18540" transform="translate(0 25.018)">
        <path id="Path_14151" data-name="Path 14151" d="M121.14,315.229,77.607,291.636l33.575,1.359Z" transform="translate(-76.929 -290.959)" fill="#ffc804"/>
        <path id="Path_14152" data-name="Path 14152" d="M119.029,313.8a.675.675,0,0,1-.323-.082L75.173,290.121a.678.678,0,0,1,.35-1.273l33.575,1.359a.677.677,0,0,1,.591.4l9.958,22.234a.678.678,0,0,1-.619.955ZM78.385,290.321l39.207,21.248-8.969-20.025Z" transform="translate(-74.818 -288.848)" fill="#2f2f2f"/>
      </g>
    </g>
  </g>
</svg>
