<svg xmlns="http://www.w3.org/2000/svg" width="20" height="20" viewBox="0 0 20 20">
  <g id="signout_1_" data-name="signout (1)" transform="translate(-2 -2)">
    <path id="Path_14110" data-name="Path 14110" d="M15.707,11.293l-4-4a1,1,0,1,0-1.414,1.414L12.586,11H2.05c-.03.33-.05.66-.05,1s.02.67.05,1H12.586l-2.293,2.293a1,1,0,1,0,1.414,1.414l4-4a1,1,0,0,0,0-1.414Z" fill="#fff"/>
    <path id="Path_14111" data-name="Path 14111" d="M12,2a10,10,0,0,0-9.949,9H12.586L10.293,8.707a1,1,0,1,1,1.414-1.414l4,4a1,1,0,0,1,0,1.414l-4,4a1,1,0,1,1-1.414-1.414L12.586,13H2.05A10,10,0,1,0,12,2Z" fill="#fff" opacity="0.4"/>
  </g>
</svg>
