<svg id="portugal-33058" xmlns="http://www.w3.org/2000/svg" width="32" height="24" viewBox="0 0 32 24">
  <path id="Path_3463" data-name="Path 3463" d="M256,0h19.2V24H256Z" transform="translate(-243.2)" fill="red"/>
  <path id="Path_3464" data-name="Path 3464" d="M0,0H12.8V24H0Z" fill="#060"/>
  <g id="Group_23" data-name="Group 23" transform="translate(7.449 6.642)">
    <path id="Path_3465" data-name="Path 3465" d="M167.5,190.75c-1.611-.048-9-4.66-9.05-5.395l.408-.68c.733,1.065,8.286,5.55,9.028,5.391l-.386.684" transform="translate(-157.979 -182.084)" fill="#ff0" stroke="#000" stroke-linecap="round" stroke-linejoin="round" stroke-width="0.1" fill-rule="evenodd"/>
    <path id="Path_3466" data-name="Path 3466" d="M157.429,180.421c-.145.389,1.928,1.67,4.422,3.187s4.643,2.454,4.8,2.319a1.38,1.38,0,0,0,.072-.135c-.03.045-.1.059-.216.027a25.071,25.071,0,0,1-4.607-2.32c-2.176-1.32-4.069-2.536-4.363-3.052a.314.314,0,0,1-.032-.152H157.5l-.063.11-.009.017Zm8.766,6.189c-.027.049-.078.051-.175.041a19.351,19.351,0,0,1-4.6-2.251c-2.518-1.507-4.6-2.881-4.372-3.24l.061-.109.012,0c-.2.608,4.1,3.071,4.357,3.228,2.492,1.544,4.593,2.445,4.779,2.211l-.068.116h0Z" transform="translate(-156.633 -177.922)" fill="#ff0" stroke="#000" stroke-linecap="round" stroke-linejoin="round" stroke-width="0.1" fill-rule="evenodd"/>
    <path id="Path_3467" data-name="Path 3467" d="M166.48,185.183a15.216,15.216,0,0,0,4.748-.677l-.247-.4a13.483,13.483,0,0,1-4.515.658c-2.173-.02-3.706-.222-4.475-.738l-.233.427a11.734,11.734,0,0,0,4.721.731" transform="translate(-161.12 -181.466)" fill="#ff0" stroke="#000" stroke-linecap="round" stroke-linejoin="round" stroke-width="0.1" fill-rule="evenodd"/>
    <path id="Path_3468" data-name="Path 3468" d="M160.3,183.613a6.927,6.927,0,0,1-1.887.511,19.5,19.5,0,0,1-2.934.212,20.806,20.806,0,0,1-2.81-.178,8.186,8.186,0,0,1-1.971-.522c.021-.042.035-.071.055-.111a8.529,8.529,0,0,0,1.935.513,20.575,20.575,0,0,0,2.788.178,19.589,19.589,0,0,0,2.913-.216,4.735,4.735,0,0,0,1.831-.525l.08.138h0Zm-.217-.406a5.709,5.709,0,0,1-1.8.486,19.413,19.413,0,0,1-2.788.2,18.782,18.782,0,0,1-2.693-.173,7.427,7.427,0,0,1-1.877-.474l.064-.107a6.412,6.412,0,0,0,1.825.465,20.527,20.527,0,0,0,5.448-.03,4.819,4.819,0,0,0,1.745-.493l.079.131h0Zm-9.893,3.017a13.916,13.916,0,0,0,5.28.821,15.044,15.044,0,0,0,5.3-.783l-.025-.534c-.289.452-2.939.886-5.291.868s-4.535-.381-5.263-.851l0,.479" transform="translate(-150.127 -180.565)" fill="#ff0" stroke="#000" stroke-linecap="round" stroke-linejoin="round" stroke-width="0.1" fill-rule="evenodd"/>
    <path id="Path_3469" data-name="Path 3469" d="M159.674,235.612v.127a5.812,5.812,0,0,1-2.1.594,21.708,21.708,0,0,1-3.267.224,20.5,20.5,0,0,1-3.1-.213,7.739,7.739,0,0,1-2.219-.6V235.6a7.9,7.9,0,0,0,2.235.629,20.4,20.4,0,0,0,3.084.212,21.6,21.6,0,0,0,3.25-.222,6.752,6.752,0,0,0,2.121-.6Zm0-.453v.127a5.816,5.816,0,0,1-2.1.594,21.71,21.71,0,0,1-3.267.224,20.489,20.489,0,0,1-3.1-.213,7.735,7.735,0,0,1-2.219-.6v-.148a7.9,7.9,0,0,0,2.236.629,20.378,20.378,0,0,0,3.083.212,21.581,21.581,0,0,0,3.25-.222,6.75,6.75,0,0,0,2.121-.6h0Zm-5.351,3.445a18.176,18.176,0,0,1-4.648-.722l.3.471a12.485,12.485,0,0,0,4.369.713,11.175,11.175,0,0,0,4.316-.7l.309-.488a16.436,16.436,0,0,1-4.647.731" transform="translate(-148.983 -230.029)" fill="#ff0" stroke="#000" stroke-linecap="round" stroke-linejoin="round" stroke-width="0.1" fill-rule="evenodd"/>
    <path id="Path_3470" data-name="Path 3470" d="M170.131,288.915q-.067.1-.138.2a12.147,12.147,0,0,1-1.632.418,14.784,14.784,0,0,1-2.681.246,12.859,12.859,0,0,1-4.453-.763l-.063-.108.01-.016.106.041a14.324,14.324,0,0,0,4.411.728,15.035,15.035,0,0,0,2.629-.243,7.7,7.7,0,0,0,1.775-.487l.037-.021Zm.268-.441,0,0-.1.174a11.351,11.351,0,0,1-2.062.458,16.3,16.3,0,0,1-2.532.215,17.363,17.363,0,0,1-4.709-.7l-.06-.114a19.859,19.859,0,0,0,4.768.7,17.643,17.643,0,0,0,2.515-.216,12.992,12.992,0,0,0,2.054-.456l-.008-.011.135-.05h0Z" transform="translate(-160.337 -280.693)" fill="#ff0" stroke="#000" stroke-linecap="round" stroke-linejoin="round" stroke-width="0.1" fill-rule="evenodd"/>
    <path id="Path_3471" data-name="Path 3471" d="M160.133,139.983a5.091,5.091,0,0,1-1.379,3.441,4.964,4.964,0,0,1-3.39,1.406,4.727,4.727,0,0,1-4.7-4.765,4.773,4.773,0,0,1,1.668-3.561,4.983,4.983,0,0,1,3.206-1.136,4.762,4.762,0,0,1,4.594,4.615Zm-4.757-5.138a5.264,5.264,0,1,1-5.276,5.264,5.3,5.3,0,0,1,5.276-5.264" transform="translate(-150.044 -134.745)" fill="#ff0" stroke="#000" stroke-linecap="round" stroke-linejoin="round" stroke-width="0.1" fill-rule="evenodd"/>
    <path id="Path_3472" data-name="Path 3472" d="M155.573,134.484a5.281,5.281,0,1,1-5.281,5.281,5.291,5.291,0,0,1,5.281-5.281Zm-5.164,5.281a5.164,5.164,0,1,0,5.164-5.165,5.185,5.185,0,0,0-5.164,5.165Z" transform="translate(-150.226 -134.402)" fill="#ff0" stroke="#000" stroke-linecap="round" stroke-linejoin="round" stroke-width="0.1" fill-rule="evenodd"/>
    <path id="Path_3473" data-name="Path 3473" d="M164.087,143.264a4.837,4.837,0,1,1-4.837,4.837A4.857,4.857,0,0,1,164.087,143.264Zm-4.721,4.837a4.721,4.721,0,1,0,4.721-4.721,4.74,4.74,0,0,0-4.721,4.721Z" transform="translate(-158.736 -142.743)" fill="#ff0" stroke="#000" stroke-linecap="round" stroke-linejoin="round" stroke-width="0.1" fill-rule="evenodd"/>
    <path id="Path_3474" data-name="Path 3474" d="M251.647,134.06h-.452v10.611h.454Z" transform="translate(-246.084 -133.999)" fill="#ff0" stroke="#000" stroke-linecap="round" stroke-linejoin="round" stroke-width="0.1" fill-rule="evenodd"/>
    <path id="Path_3475" data-name="Path 3475" d="M250.805,132.849h.115v10.733h-.115V132.849Zm-.449,0h.116v10.733h-.116V132.849Z" transform="translate(-245.287 -132.849)" fill="#ff0" stroke="#000" stroke-linecap="round" stroke-linejoin="round" stroke-width="0.1" fill-rule="evenodd"/>
    <path id="Path_3476" data-name="Path 3476" d="M160.473,216.9v-.392l-.32-.3-1.813-.48-2.613-.267-3.147.16-2.24.533-.452.335v.392l1.146-.514,2.72-.427h2.613l1.92.213,1.333.32Z" transform="translate(-149.842 -211.335)" fill="#ff0" stroke="#000" stroke-linecap="round" stroke-linejoin="round" stroke-width="0.1" fill-rule="evenodd"/>
    <path id="Path_3477" data-name="Path 3477" d="M154.323,171.249a18.311,18.311,0,0,1,3.417.305,3.973,3.973,0,0,1,1.926.724v.138a4.229,4.229,0,0,0-1.948-.745,18.2,18.2,0,0,0-3.395-.3,18.875,18.875,0,0,0-3.466.309c-.753.149-1.757.446-1.883.739v-.143c.069-.2.817-.505,1.866-.715a18.96,18.96,0,0,1,3.483-.309Zm0-.453a18.32,18.32,0,0,1,3.417.305,3.974,3.974,0,0,1,1.926.724v.138a4.229,4.229,0,0,0-1.948-.745,18.189,18.189,0,0,0-3.395-.3,18.826,18.826,0,0,0-3.46.309c-.727.138-1.772.446-1.889.739v-.143a3.5,3.5,0,0,1,1.866-.715,18.966,18.966,0,0,1,3.483-.309Zm-.026-2.31a11.362,11.362,0,0,1,4.464.676l.286.495a11.47,11.47,0,0,0-4.747-.692,12.009,12.009,0,0,0-4.7.715l.341-.571a12,12,0,0,1,4.359-.623" transform="translate(-148.974 -166.703)" fill="#ff0" stroke="#000" stroke-linecap="round" stroke-linejoin="round" stroke-width="0.1" fill-rule="evenodd"/>
    <path id="Path_3478" data-name="Path 3478" d="M165.575,168.061a17.833,17.833,0,0,1,3.065.216,5.587,5.587,0,0,1,1.676.494l.085.15a6.14,6.14,0,0,0-1.778-.528,17.185,17.185,0,0,0-3.051-.211,17.691,17.691,0,0,0-3.092.209,5.459,5.459,0,0,0-1.664.519l.083-.158a5.544,5.544,0,0,1,1.559-.476,18.157,18.157,0,0,1,3.116-.214Zm0-.453a17.407,17.407,0,0,1,2.958.206,4.794,4.794,0,0,1,1.531.5l.124.2a4.05,4.05,0,0,0-1.705-.581,18.841,18.841,0,0,0-2.907-.206,17.684,17.684,0,0,0-2.973.219,4.841,4.841,0,0,0-1.478.456l.109-.165a5.282,5.282,0,0,1,1.35-.408,17.815,17.815,0,0,1,2.992-.219Zm2.623,5.82a13.787,13.787,0,0,0-2.625-.2c-3.275.038-4.333.673-4.462.865l-.245-.4a8.786,8.786,0,0,1,4.725-.909,16.645,16.645,0,0,1,2.833.245l-.226.4" transform="translate(-160.225 -165.87)" fill="#ff0" stroke="#000" stroke-linecap="round" stroke-linejoin="round" stroke-width="0.1" fill-rule="evenodd"/>
    <path id="Path_3479" data-name="Path 3479" d="M165.6,270.178a15.887,15.887,0,0,1,2.669.212l-.063.11a13.941,13.941,0,0,0-2.6-.2,12.584,12.584,0,0,0-3.5.409c-.336.093-.892.309-.949.488l-.062-.1c.018-.105.354-.324.982-.5a12.678,12.678,0,0,1,3.521-.416h0Zm.041-.458a16.359,16.359,0,0,1,2.866.249l-.065.115a14.944,14.944,0,0,0-2.8-.244,13.414,13.414,0,0,0-3.668.429c-.378.11-1.029.348-1.051.536l-.062-.11c.014-.171.578-.394,1.086-.542a13.473,13.473,0,0,1,3.69-.433Z" transform="translate(-160.27 -262.876)" fill="#ff0" stroke="#000" stroke-linecap="round" stroke-linejoin="round" stroke-width="0.1" fill-rule="evenodd"/>
    <path id="Path_3480" data-name="Path 3480" d="M169.278,185.78l-.394.61-1.131-1-2.933-1.973-3.307-1.813-1.717-.587.366-.678.124-.068,1.067.267,3.52,1.813,2.027,1.28,1.707,1.227.693.8Z" transform="translate(-159.256 -177.895)" fill="#ff0" stroke="#000" stroke-linecap="round" stroke-linejoin="round" stroke-width="0.1" fill-rule="evenodd"/>
    <path id="Path_3481" data-name="Path 3481" d="M157.3,180.015c.3-.2,2.514.782,4.83,2.178s4.516,2.983,4.317,3.279l-.065.1-.03.024c.006,0,.04-.045,0-.155-.1-.324-1.664-1.573-4.261-3.141-2.532-1.51-4.642-2.42-4.853-2.16l.066-.127Zm9.624,4.743c.19-.376-1.862-1.922-4.407-3.428-2.6-1.475-4.48-2.344-4.822-2.085l-.076.139c0,.008,0-.009.019-.022a.334.334,0,0,1,.212-.051c.59.009,2.276.784,4.64,2.14,1.036.6,4.377,2.746,4.364,3.349,0,.052,0,.062-.015.088l.085-.129h0Z" transform="translate(-156.817 -176.882)" fill="#ff0" stroke="#000" stroke-linecap="round" stroke-linejoin="round" stroke-width="0.1" fill-rule="evenodd"/>
  </g>
  <g id="Group_34" data-name="Group 34" transform="translate(9.631 8.359)">
    <path id="Path_3482" data-name="Path 3482" d="M192.626,144.743a3.19,3.19,0,0,0,3.161,3.164,3.172,3.172,0,0,0,3.171-3.161h0v-4.223l-6.333-.007v4.228Z" transform="translate(-192.626 -140.515)" fill="#fff" stroke="#000" stroke-width="0.1"/>
    <path id="Path_3483" data-name="Path 3483" d="M195.006,147.422v0a3.007,3.007,0,0,0,.895,2.134,3.032,3.032,0,0,0,4.29,0,3.007,3.007,0,0,0,.891-2.136h0v-4.1h-6.071l0,4.093m4.855-2.867v2.607l0,.276a2,2,0,0,1-.013.226,1.771,1.771,0,0,1-.52,1.051,1.813,1.813,0,0,1-1.283.53,1.833,1.833,0,0,1-1.806-1.816v-2.881l3.623.007h0Z" transform="translate(-194.886 -143.188)" fill="red" stroke="#000" stroke-width="0.1"/>
    <g id="e" transform="translate(0.246 0.22)">
      <g id="d">
        <path id="Path_3484" data-name="Path 3484" d="M202.87,157.787a.37.37,0,0,1,.218-.365.365.365,0,0,1,.225.368l-.443,0" transform="translate(-202.604 -156.797)" fill="#ff0"/>
        <path id="Path_3485" data-name="Path 3485" d="M197.633,157.5l-.036.338h.221a.3.3,0,0,1,.217-.326.326.326,0,0,1,.218.326h.221l-.04-.341-.8,0h0Zm-.051.34h.9a.042.042,0,0,1,0,.083h-.9a.042.042,0,0,1,0-.083Z" transform="translate(-197.547 -156.866)" fill="#ff0" stroke="#000" stroke-width="0.1"/>
        <path id="Path_3486" data-name="Path 3486" d="M198.3,145.889a.233.233,0,0,1,.121-.227.236.236,0,0,1,.126.227H198.3m-.309-.479h.866a.038.038,0,0,1,0,.075h-.866a.038.038,0,0,1,0-.075Zm.018.076h.829a.038.038,0,0,1,0,.075h-.829a.038.038,0,0,1,0-.075Zm.268-.565h.065v.046h.048v-.047h.067v.047h.048v-.047h.067v.107a.028.028,0,0,1-.029.028h-.235a.03.03,0,0,1-.03-.028v-.106Zm.246.143.015.344h-.229l.015-.344h.2" transform="translate(-197.939 -144.92)" fill="#ff0" stroke="#000" stroke-width="0.1"/>
        <path id="a" d="M199.623,151l.007.185h-.22l.006-.185h.207Z" transform="translate(-199.317 -150.694)" fill="#ff0" stroke="#000" stroke-width="0.1"/>
        <path id="Path_3487" data-name="Path 3487" d="M199.623,151l.007.185h-.22l.006-.185h.207Z" transform="translate(-198.751 -150.694)" fill="#ff0" stroke="#000" stroke-width="0.1"/>
        <path id="b" d="M198.721,148.293h.064v.047h.047v-.048h.066v.047h.047v-.048h.066v.107a.028.028,0,0,1-.029.028h-.23a.03.03,0,0,1-.03-.028Z" transform="translate(-198.662 -148.123)" fill="#ff0" stroke="#000" stroke-width="0.1"/>
        <path id="Path_3488" data-name="Path 3488" d="M198.721,148.293h.064v.047h.047v-.048h.066v.047h.047v-.048h.066v.107a.028.028,0,0,1-.029.028h-.23a.03.03,0,0,1-.03-.028Z" transform="translate(-198.096 -148.123)" fill="#ff0" stroke="#000" stroke-width="0.1"/>
        <path id="Path_3489" data-name="Path 3489" d="M206.827,149.505a.023.023,0,1,1,.046,0v.082h-.046v-.082" transform="translate(-206.363 -149.252)"/>
        <path id="c" d="M201.142,151.9a.022.022,0,1,1,.044,0v.063h-.044V151.9" transform="translate(-200.962 -151.526)"/>
        <path id="Path_3490" data-name="Path 3490" d="M201.142,151.9a.022.022,0,1,1,.044,0v.063h-.044V151.9" transform="translate(-200.395 -151.526)" stroke="#000" stroke-width="0.1"/>
      </g>
      <g id="Group_24" data-name="Group 24" transform="translate(0 2.47)">
        <path id="Path_3491" data-name="Path 3491" d="M202.87,157.787a.37.37,0,0,1,.218-.365.365.365,0,0,1,.225.368l-.443,0" transform="translate(-202.604 -156.797)" fill="#ff0"/>
        <path id="Path_3492" data-name="Path 3492" d="M197.633,157.5l-.036.338h.221a.3.3,0,0,1,.217-.326.326.326,0,0,1,.218.326h.221l-.04-.341-.8,0h0Zm-.051.34h.9a.042.042,0,0,1,0,.083h-.9a.042.042,0,0,1,0-.083Z" transform="translate(-197.547 -156.866)" fill="#ff0" stroke="#000" stroke-width="0.1"/>
        <path id="Path_3493" data-name="Path 3493" d="M198.3,145.889a.233.233,0,0,1,.121-.227.236.236,0,0,1,.126.227H198.3m-.309-.479h.866a.038.038,0,0,1,0,.075h-.866a.038.038,0,0,1,0-.075Zm.018.076h.829a.038.038,0,0,1,0,.075h-.829a.038.038,0,0,1,0-.075Zm.268-.565h.065v.046h.048v-.047h.067v.047h.048v-.047h.067v.107a.028.028,0,0,1-.029.028h-.235a.03.03,0,0,1-.03-.028v-.106Zm.246.143.015.344h-.229l.015-.344h.2" transform="translate(-197.939 -144.92)" fill="#ff0" stroke="#000" stroke-width="0.1"/>
        <path id="a-2" data-name="a" d="M199.623,151l.007.185h-.22l.006-.185h.207Z" transform="translate(-199.317 -150.694)" fill="#ff0" stroke="#000" stroke-width="0.1"/>
        <path id="Path_3494" data-name="Path 3494" d="M199.623,151l.007.185h-.22l.006-.185h.207Z" transform="translate(-198.751 -150.694)" fill="#ff0" stroke="#000" stroke-width="0.1"/>
        <path id="b-2" data-name="b" d="M198.721,148.293h.064v.047h.047v-.048h.066v.047h.047v-.048h.066v.107a.028.028,0,0,1-.029.028h-.23a.03.03,0,0,1-.03-.028Z" transform="translate(-198.662 -148.123)" fill="#ff0" stroke="#000" stroke-width="0.1"/>
        <path id="Path_3495" data-name="Path 3495" d="M198.721,148.293h.064v.047h.047v-.048h.066v.047h.047v-.048h.066v.107a.028.028,0,0,1-.029.028h-.23a.03.03,0,0,1-.03-.028Z" transform="translate(-198.096 -148.123)" fill="#ff0" stroke="#000" stroke-width="0.1"/>
        <path id="Path_3496" data-name="Path 3496" d="M206.827,149.505a.023.023,0,1,1,.046,0v.082h-.046v-.082" transform="translate(-206.363 -149.252)"/>
        <path id="c-2" data-name="c" d="M201.142,151.9a.022.022,0,1,1,.044,0v.063h-.044V151.9" transform="translate(-200.962 -151.526)"/>
        <path id="Path_3497" data-name="Path 3497" d="M201.142,151.9a.022.022,0,1,1,.044,0v.063h-.044V151.9" transform="translate(-200.395 -151.526)" stroke="#000" stroke-width="0.1"/>
      </g>
      <g id="Group_25" data-name="Group 25" transform="translate(0.339 5.523) rotate(-45.202)">
        <path id="Path_3498" data-name="Path 3498" d="M0,.365A.371.371,0,0,1,.218,0,.365.365,0,0,1,.443.368L0,.365" transform="translate(0.266 0.625)" fill="#ff0"/>
        <path id="Path_3499" data-name="Path 3499" d="M.086,0,.049.34H.27A.3.3,0,0,1,.487.015.326.326,0,0,1,.706.341H.927L.887,0l-.8,0h0ZM.035.342h.9A.039.039,0,0,1,.973.384.039.039,0,0,1,.938.425h-.9A.039.039,0,0,1,0,.384.039.039,0,0,1,.035.342Z" transform="translate(0 0.629)" fill="#ff0" stroke="#000" stroke-width="0.1"/>
        <path id="Path_3500" data-name="Path 3500" d="M.343.969A.233.233,0,0,1,.464.742.236.236,0,0,1,.59.969H.343M.033.49H.9A.038.038,0,0,1,.9.565H.033a.038.038,0,0,1,0-.075ZM.051.566H.88a.038.038,0,0,1,0,.075H.051a.038.038,0,0,1,0-.075ZM.319,0H.385V.047H.432V0H.5V.048H.547V0H.614V.107A.028.028,0,0,1,.585.135H.35A.03.03,0,0,1,.319.107V0ZM.565.144.58.488H.351L.366.144h.2" transform="translate(0.021 0)" fill="#ff0" stroke="#000" stroke-width="0.1"/>
        <path id="a-3" data-name="a" d="M.213,0,.22.185H0L.006,0H.213Z" transform="translate(0.093 0.304)" fill="#ff0" stroke="#000" stroke-width="0.1"/>
        <path id="Path_3501" data-name="Path 3501" d="M.213,0,.22.185H0L.006,0H.213Z" transform="translate(0.659 0.304)" fill="#ff0" stroke="#000" stroke-width="0.1"/>
        <path id="b-3" data-name="b" d="M0,0H.064V.048H.111V0H.176V.048H.223V0H.289V.107A.028.028,0,0,1,.26.135H.03A.03.03,0,0,1,0,.107V0Z" transform="translate(0.059 0.169)" fill="#ff0" stroke="#000" stroke-width="0.1"/>
        <path id="Path_3502" data-name="Path 3502" d="M0,0H.064V.048H.111V0H.176V.048H.223V0H.289V.107A.028.028,0,0,1,.26.135H.03A.03.03,0,0,1,0,.107V0Z" transform="translate(0.624 0.169)" fill="#ff0" stroke="#000" stroke-width="0.1"/>
        <path id="Path_3503" data-name="Path 3503" d="M0,.025a.023.023,0,1,1,.046,0V.107H0V.025" transform="translate(0.464 0.228)"/>
        <path id="c-3" data-name="c" d="M0,.024a.022.022,0,1,1,.044,0V.088H0V.024" transform="translate(0.18 0.348)"/>
        <path id="Path_3504" data-name="Path 3504" d="M0,.024a.022.022,0,1,1,.044,0V.088H0V.024" transform="translate(0.747 0.348)" stroke="#000" stroke-width="0.1"/>
      </g>
    </g>
    <g id="Group_26" data-name="Group 26" transform="translate(2.684 0.22)">
      <path id="Path_3505" data-name="Path 3505" d="M202.87,157.787a.37.37,0,0,1,.218-.365.365.365,0,0,1,.225.368l-.443,0" transform="translate(-202.604 -156.797)" fill="#ff0"/>
      <path id="Path_3506" data-name="Path 3506" d="M197.633,157.5l-.036.338h.221a.3.3,0,0,1,.217-.326.326.326,0,0,1,.218.326h.221l-.04-.341-.8,0h0Zm-.051.34h.9a.042.042,0,0,1,0,.083h-.9a.042.042,0,0,1,0-.083Z" transform="translate(-197.547 -156.866)" fill="#ff0" stroke="#000" stroke-width="0.1"/>
      <path id="Path_3507" data-name="Path 3507" d="M198.3,145.889a.233.233,0,0,1,.121-.227.236.236,0,0,1,.126.227H198.3m-.309-.479h.866a.038.038,0,0,1,0,.075h-.866a.038.038,0,0,1,0-.075Zm.018.076h.829a.038.038,0,0,1,0,.075h-.829a.038.038,0,0,1,0-.075Zm.268-.565h.065v.046h.048v-.047h.067v.047h.048v-.047h.067v.107a.028.028,0,0,1-.029.028h-.235a.03.03,0,0,1-.03-.028v-.106Zm.246.143.015.344h-.229l.015-.344h.2" transform="translate(-197.939 -144.92)" fill="#ff0" stroke="#000" stroke-width="0.1"/>
      <path id="a-4" data-name="a" d="M199.623,151l.007.185h-.22l.006-.185h.207Z" transform="translate(-199.317 -150.694)" fill="#ff0" stroke="#000" stroke-width="0.1"/>
      <path id="Path_3508" data-name="Path 3508" d="M199.623,151l.007.185h-.22l.006-.185h.207Z" transform="translate(-198.751 -150.694)" fill="#ff0" stroke="#000" stroke-width="0.1"/>
      <path id="b-4" data-name="b" d="M198.721,148.293h.064v.047h.047v-.048h.066v.047h.047v-.048h.066v.107a.028.028,0,0,1-.029.028h-.23a.03.03,0,0,1-.03-.028Z" transform="translate(-198.662 -148.123)" fill="#ff0" stroke="#000" stroke-width="0.1"/>
      <path id="Path_3509" data-name="Path 3509" d="M198.721,148.293h.064v.047h.047v-.048h.066v.047h.047v-.048h.066v.107a.028.028,0,0,1-.029.028h-.23a.03.03,0,0,1-.03-.028Z" transform="translate(-198.096 -148.123)" fill="#ff0" stroke="#000" stroke-width="0.1"/>
      <path id="Path_3510" data-name="Path 3510" d="M206.827,149.505a.023.023,0,1,1,.046,0v.082h-.046v-.082" transform="translate(-206.363 -149.252)"/>
      <path id="c-4" data-name="c" d="M201.142,151.9a.022.022,0,1,1,.044,0v.063h-.044V151.9" transform="translate(-200.962 -151.526)"/>
      <path id="Path_3511" data-name="Path 3511" d="M201.142,151.9a.022.022,0,1,1,.044,0v.063h-.044V151.9" transform="translate(-200.395 -151.526)" stroke="#000" stroke-width="0.1"/>
    </g>
    <g id="Group_29" data-name="Group 29" transform="translate(6.08 6.486) rotate(180)">
      <g id="d-2" data-name="d" transform="translate(0 5.212)">
        <path id="Path_3512" data-name="Path 3512" d="M0,0A.371.371,0,0,0,.218.368.365.365,0,0,0,.443,0L0,0" transform="translate(0.266 0.061)" fill="#ff0"/>
        <path id="Path_3513" data-name="Path 3513" d="M.086.423.049.085H.27A.3.3,0,0,0,.487.41.326.326,0,0,0,.706.084H.927L.887.425l-.8,0h0ZM.035.083h.9A.039.039,0,0,0,.973.042.039.039,0,0,0,.938,0h-.9A.039.039,0,0,0,0,.042.039.039,0,0,0,.035.083Z" fill="#ff0" stroke="#000" stroke-width="0.1"/>
        <path id="Path_3514" data-name="Path 3514" d="M.343,0A.233.233,0,0,0,.464.227.236.236,0,0,0,.59,0H.343M.033.479H.9A.038.038,0,0,0,.9.4H.033a.038.038,0,0,0,0,.075ZM.051.4H.88A.035.035,0,0,0,.912.366.035.035,0,0,0,.88.328H.051A.035.035,0,0,0,.02.366.035.035,0,0,0,.051.4ZM.319.968H.385V.921H.432V.969H.5V.921H.547V.969H.614V.862A.028.028,0,0,0,.585.834H.35a.03.03,0,0,0-.03.028V.968ZM.565.825.58.481H.351L.366.825h.2" transform="translate(0.021 0.085)" fill="#ff0" stroke="#000" stroke-width="0.1"/>
        <path id="a-5" data-name="a" d="M.213.185.22,0H0L.006.185H.213Z" transform="translate(0.093 0.565)" fill="#ff0" stroke="#000" stroke-width="0.1"/>
        <path id="Path_3515" data-name="Path 3515" d="M.213.185.22,0H0L.006.185H.213Z" transform="translate(0.659 0.565)" fill="#ff0" stroke="#000" stroke-width="0.1"/>
        <path id="b-5" data-name="b" d="M0,.134H.064V.087H.111V.135H.176V.087H.223V.135H.289V.028A.028.028,0,0,0,.26,0H.03A.03.03,0,0,0,0,.028Z" transform="translate(0.059 0.75)" fill="#ff0" stroke="#000" stroke-width="0.1"/>
        <path id="Path_3516" data-name="Path 3516" d="M0,.134H.064V.087H.111V.135H.176V.087H.223V.135H.289V.028A.028.028,0,0,0,.26,0H.03A.03.03,0,0,0,0,.028Z" transform="translate(0.624 0.75)" fill="#ff0" stroke="#000" stroke-width="0.1"/>
        <path id="Path_3517" data-name="Path 3517" d="M0,.082a.023.023,0,1,0,.046,0V0H0V.082" transform="translate(0.464 0.719)"/>
        <path id="c-5" data-name="c" d="M0,.063a.022.022,0,1,0,.044,0V0H0V.063" transform="translate(0.18 0.619)"/>
        <path id="Path_3518" data-name="Path 3518" d="M0,.063a.022.022,0,1,0,.044,0V0H0V.063" transform="translate(0.747 0.619)" stroke="#000" stroke-width="0.1"/>
      </g>
      <g id="Group_27" data-name="Group 27" transform="translate(0 2.741)">
        <path id="Path_3519" data-name="Path 3519" d="M0,0A.371.371,0,0,0,.218.368.365.365,0,0,0,.443,0L0,0" transform="translate(0.266 0.061)" fill="#ff0"/>
        <path id="Path_3520" data-name="Path 3520" d="M.086.423.049.085H.27A.3.3,0,0,0,.487.41.326.326,0,0,0,.706.084H.927L.887.425l-.8,0h0ZM.035.083h.9A.039.039,0,0,0,.973.042.039.039,0,0,0,.938,0h-.9A.039.039,0,0,0,0,.042.039.039,0,0,0,.035.083Z" transform="translate(0 0)" fill="#ff0" stroke="#000" stroke-width="0.1"/>
        <path id="Path_3521" data-name="Path 3521" d="M.343,0A.233.233,0,0,0,.464.227.236.236,0,0,0,.59,0H.343M.033.479H.9A.038.038,0,0,0,.9.4H.033a.038.038,0,0,0,0,.075ZM.051.4H.88A.035.035,0,0,0,.912.366.035.035,0,0,0,.88.328H.051A.035.035,0,0,0,.02.366.035.035,0,0,0,.051.4ZM.319.968H.385V.921H.432V.969H.5V.921H.547V.969H.614V.862A.028.028,0,0,0,.585.834H.35a.03.03,0,0,0-.03.028V.968ZM.565.825.58.481H.351L.366.825h.2" transform="translate(0.021 0.085)" fill="#ff0" stroke="#000" stroke-width="0.1"/>
        <path id="a-6" data-name="a" d="M.213.185.22,0H0L.006.185H.213Z" transform="translate(0.093 0.565)" fill="#ff0" stroke="#000" stroke-width="0.1"/>
        <path id="Path_3522" data-name="Path 3522" d="M.213.185.22,0H0L.006.185H.213Z" transform="translate(0.659 0.565)" fill="#ff0" stroke="#000" stroke-width="0.1"/>
        <path id="b-6" data-name="b" d="M0,.134H.064V.087H.111V.135H.176V.087H.223V.135H.289V.028A.028.028,0,0,0,.26,0H.03A.03.03,0,0,0,0,.028Z" transform="translate(0.059 0.75)" fill="#ff0" stroke="#000" stroke-width="0.1"/>
        <path id="Path_3523" data-name="Path 3523" d="M0,.134H.064V.087H.111V.135H.176V.087H.223V.135H.289V.028A.028.028,0,0,0,.26,0H.03A.03.03,0,0,0,0,.028Z" transform="translate(0.624 0.75)" fill="#ff0" stroke="#000" stroke-width="0.1"/>
        <path id="Path_3524" data-name="Path 3524" d="M0,.082a.023.023,0,1,0,.046,0V0H0V.082" transform="translate(0.464 0.719)"/>
        <path id="c-6" data-name="c" d="M0,.063a.022.022,0,1,0,.044,0V0H0V.063" transform="translate(0.18 0.619)"/>
        <path id="Path_3525" data-name="Path 3525" d="M0,.063a.022.022,0,1,0,.044,0V0H0V.063" transform="translate(0.747 0.619)" stroke="#000" stroke-width="0.1"/>
      </g>
      <g id="Group_28" data-name="Group 28" transform="translate(1.087 0) rotate(45.202)">
        <path id="Path_3526" data-name="Path 3526" d="M0,0A.371.371,0,0,0,.218.368.365.365,0,0,0,.443,0L0,0" transform="translate(0.266 0.061)" fill="#ff0"/>
        <path id="Path_3527" data-name="Path 3527" d="M.086.423.049.085H.27A.3.3,0,0,0,.487.41.326.326,0,0,0,.706.084H.927L.887.425l-.8,0h0ZM.035.083h.9A.039.039,0,0,0,.973.042.039.039,0,0,0,.938,0h-.9A.039.039,0,0,0,0,.042.039.039,0,0,0,.035.083Z" transform="translate(0 0)" fill="#ff0" stroke="#000" stroke-width="0.1"/>
        <path id="Path_3528" data-name="Path 3528" d="M.343,0A.233.233,0,0,0,.464.227.236.236,0,0,0,.59,0H.343M.033.479H.9A.038.038,0,0,0,.9.4H.033a.038.038,0,0,0,0,.075ZM.051.4H.88A.035.035,0,0,0,.912.366.035.035,0,0,0,.88.328H.051A.035.035,0,0,0,.02.366.035.035,0,0,0,.051.4ZM.319.968H.385V.921H.432V.969H.5V.921H.547V.969H.614V.862A.028.028,0,0,0,.585.834H.35a.03.03,0,0,0-.03.028V.968ZM.565.825.58.481H.351L.366.825h.2" transform="translate(0.021 0.085)" fill="#ff0" stroke="#000" stroke-width="0.1"/>
        <path id="a-7" data-name="a" d="M.213.185.22,0H0L.006.185H.213Z" transform="translate(0.093 0.565)" fill="#ff0" stroke="#000" stroke-width="0.1"/>
        <path id="Path_3529" data-name="Path 3529" d="M.213.185.22,0H0L.006.185H.213Z" transform="translate(0.659 0.565)" fill="#ff0" stroke="#000" stroke-width="0.1"/>
        <path id="b-7" data-name="b" d="M0,.134H.064V.087H.111V.135H.176V.087H.223V.135H.289V.028A.028.028,0,0,0,.26,0H.03A.03.03,0,0,0,0,.028V.134Z" transform="translate(0.059 0.75)" fill="#ff0" stroke="#000" stroke-width="0.1"/>
        <path id="Path_3530" data-name="Path 3530" d="M0,.134H.064V.087H.111V.135H.176V.087H.223V.135H.289V.028A.028.028,0,0,0,.26,0H.03A.03.03,0,0,0,0,.028V.134Z" transform="translate(0.624 0.75)" fill="#ff0" stroke="#000" stroke-width="0.1"/>
        <path id="Path_3531" data-name="Path 3531" d="M0,.082a.023.023,0,1,0,.046,0V0H0V.082" transform="translate(0.464 0.719)"/>
        <path id="c-7" data-name="c" d="M0,.063a.022.022,0,1,0,.044,0V0H0V.063" transform="translate(0.18 0.619)"/>
        <path id="Path_3532" data-name="Path 3532" d="M0,.063a.022.022,0,1,0,.044,0V0H0V.063" transform="translate(0.747 0.619)" stroke="#000" stroke-width="0.1"/>
      </g>
    </g>
    <g id="f" transform="translate(2.776 3.195)">
      <path id="Path_3533" data-name="Path 3533" d="M248.145,204.991h0a.445.445,0,0,0,.118.3.379.379,0,0,0,.566,0,.445.445,0,0,0,.117-.3v-.574h-.8v.574" transform="translate(-248.145 -204.417)" fill="#039"/>
      <circle id="Ellipse_1" data-name="Ellipse 1" cx="0.079" cy="0.079" r="0.079" transform="translate(0.104 0.139)" fill="#fff"/>
      <circle id="Ellipse_2" data-name="Ellipse 2" cx="0.079" cy="0.079" r="0.079" transform="translate(0.548 0.14)" fill="#fff"/>
      <circle id="Ellipse_3" data-name="Ellipse 3" cx="0.079" cy="0.079" r="0.079" transform="translate(0.326 0.352)" fill="#fff"/>
      <circle id="Ellipse_4" data-name="Ellipse 4" cx="0.079" cy="0.079" r="0.079" transform="translate(0.104 0.575)" fill="#fff"/>
      <circle id="Ellipse_5" data-name="Ellipse 5" cx="0.079" cy="0.079" r="0.079" transform="translate(0.547 0.575)" fill="#fff"/>
    </g>
    <g id="Group_30" data-name="Group 30" transform="translate(2.776 1.808)">
      <path id="Path_3534" data-name="Path 3534" d="M248.145,204.991h0a.445.445,0,0,0,.118.3.379.379,0,0,0,.566,0,.445.445,0,0,0,.117-.3v-.574h-.8v.574" transform="translate(-248.145 -204.417)" fill="#039"/>
      <circle id="Ellipse_6" data-name="Ellipse 6" cx="0.079" cy="0.079" r="0.079" transform="translate(0.104 0.139)" fill="#fff"/>
      <circle id="Ellipse_7" data-name="Ellipse 7" cx="0.079" cy="0.079" r="0.079" transform="translate(0.548 0.14)" fill="#fff"/>
      <circle id="Ellipse_8" data-name="Ellipse 8" cx="0.079" cy="0.079" r="0.079" transform="translate(0.326 0.352)" fill="#fff"/>
      <circle id="Ellipse_9" data-name="Ellipse 9" cx="0.079" cy="0.079" r="0.079" transform="translate(0.104 0.575)" fill="#fff"/>
      <circle id="Ellipse_10" data-name="Ellipse 10" cx="0.079" cy="0.079" r="0.079" transform="translate(0.547 0.575)" fill="#fff"/>
    </g>
    <g id="Group_31" data-name="Group 31" transform="translate(1.667 3.195)">
      <path id="Path_3535" data-name="Path 3535" d="M248.145,204.991h0a.445.445,0,0,0,.118.3.379.379,0,0,0,.566,0,.445.445,0,0,0,.117-.3v-.574h-.8v.574" transform="translate(-248.145 -204.417)" fill="#039"/>
      <circle id="Ellipse_11" data-name="Ellipse 11" cx="0.079" cy="0.079" r="0.079" transform="translate(0.104 0.139)" fill="#fff"/>
      <circle id="Ellipse_12" data-name="Ellipse 12" cx="0.079" cy="0.079" r="0.079" transform="translate(0.548 0.14)" fill="#fff"/>
      <circle id="Ellipse_13" data-name="Ellipse 13" cx="0.079" cy="0.079" r="0.079" transform="translate(0.326 0.352)" fill="#fff"/>
      <circle id="Ellipse_14" data-name="Ellipse 14" cx="0.079" cy="0.079" r="0.079" transform="translate(0.104 0.575)" fill="#fff"/>
      <circle id="Ellipse_15" data-name="Ellipse 15" cx="0.079" cy="0.079" r="0.079" transform="translate(0.547 0.575)" fill="#fff"/>
    </g>
    <g id="Group_32" data-name="Group 32" transform="translate(3.882 3.195)">
      <path id="Path_3536" data-name="Path 3536" d="M248.145,204.991h0a.445.445,0,0,0,.118.3.379.379,0,0,0,.566,0,.445.445,0,0,0,.117-.3v-.574h-.8v.574" transform="translate(-248.145 -204.417)" fill="#039"/>
      <circle id="Ellipse_16" data-name="Ellipse 16" cx="0.079" cy="0.079" r="0.079" transform="translate(0.104 0.139)" fill="#fff"/>
      <circle id="Ellipse_17" data-name="Ellipse 17" cx="0.079" cy="0.079" r="0.079" transform="translate(0.548 0.14)" fill="#fff"/>
      <circle id="Ellipse_18" data-name="Ellipse 18" cx="0.079" cy="0.079" r="0.079" transform="translate(0.326 0.352)" fill="#fff"/>
      <circle id="Ellipse_19" data-name="Ellipse 19" cx="0.079" cy="0.079" r="0.079" transform="translate(0.104 0.575)" fill="#fff"/>
      <circle id="Ellipse_20" data-name="Ellipse 20" cx="0.079" cy="0.079" r="0.079" transform="translate(0.547 0.575)" fill="#fff"/>
    </g>
    <g id="Group_33" data-name="Group 33" transform="translate(2.776 4.57)">
      <path id="Path_3537" data-name="Path 3537" d="M248.145,204.991h0a.445.445,0,0,0,.118.3.379.379,0,0,0,.566,0,.445.445,0,0,0,.117-.3v-.574h-.8v.574" transform="translate(-248.145 -204.417)" fill="#039"/>
      <circle id="Ellipse_21" data-name="Ellipse 21" cx="0.079" cy="0.079" r="0.079" transform="translate(0.104 0.139)" fill="#fff"/>
      <circle id="Ellipse_22" data-name="Ellipse 22" cx="0.079" cy="0.079" r="0.079" transform="translate(0.548 0.14)" fill="#fff"/>
      <circle id="Ellipse_23" data-name="Ellipse 23" cx="0.079" cy="0.079" r="0.079" transform="translate(0.326 0.352)" fill="#fff"/>
      <circle id="Ellipse_24" data-name="Ellipse 24" cx="0.079" cy="0.079" r="0.079" transform="translate(0.104 0.575)" fill="#fff"/>
      <circle id="Ellipse_25" data-name="Ellipse 25" cx="0.079" cy="0.079" r="0.079" transform="translate(0.547 0.575)" fill="#fff"/>
    </g>
  </g>
</svg>
