<svg id="turkey-33109" xmlns="http://www.w3.org/2000/svg" width="32" height="24" viewBox="0 0 32 24">
  <path id="Path_2877" data-name="Path 2877" d="M0,0H32V24H0Z" fill="#f31930" fill-rule="evenodd"/>
  <path id="Path_2878" data-name="Path 2878" d="M175.237,133.577a6.1,6.1,0,1,1-6.1-5.995,6.047,6.047,0,0,1,6.1,5.995Z" transform="translate(-154.888 -121.203)" fill="#fff" fill-rule="evenodd"/>
  <path id="Path_2879" data-name="Path 2879" d="M227.685,156.353a4.879,4.879,0,1,1-4.879-4.8A4.838,4.838,0,0,1,227.685,156.353Z" transform="translate(-207.032 -143.979)" fill="#f31830" fill-rule="evenodd"/>
  <path id="Path_2880" data-name="Path 2880" d="M390.513,191.465l-.049,2.216-2.067.561,2.038.726L390.385,197l1.329-1.587,2.008.7-1.162-1.7,1.418-1.693-2.176.6-1.29-1.848Z" transform="translate(-368.976 -181.892)" fill="#fff" fill-rule="evenodd"/>
</svg>
